<svg width="34" height="34" viewBox="0 0 34 34" fill="none" xmlns="http://www.w3.org/2000/svg">
<path d="M19.125 11.3333H17V18.4167L23.0633 22.015L24.0833 20.3008L19.125 17.3542V11.3333ZM18.4167 4.25C15.0352 4.25 11.7921 5.5933 9.40105 7.98439C7.00996 10.3755 5.66666 13.6185 5.66666 17H1.41666L7.02666 22.7092L12.75 17H8.5C8.5 14.3699 9.54479 11.8476 11.4045 9.98786C13.2643 8.12812 15.7866 7.08333 18.4167 7.08333C21.0467 7.08333 23.5691 8.12812 25.4288 9.98786C27.2885 11.8476 28.3333 14.3699 28.3333 17C28.3333 19.6301 27.2885 22.1524 25.4288 24.0121C23.5691 25.8719 21.0467 26.9167 18.4167 26.9167C15.6825 26.9167 13.2033 25.7975 11.4183 23.9983L9.40666 26.01C11.7158 28.3333 14.875 29.75 18.4167 29.75C21.7982 29.75 25.0412 28.4067 27.4323 26.0156C29.8234 23.6245 31.1667 20.3815 31.1667 17C31.1667 13.6185 29.8234 10.3755 27.4323 7.98439C25.0412 5.5933 21.7982 4.25 18.4167 4.25Z" fill="#0068C1"/>
</svg>
