<svg width="300" height="450" viewBox="0 0 300 450" fill="none" xmlns="http://www.w3.org/2000/svg">
<rect width="300" height="450" fill="#D9D9D9"/>
<mask id="mask0_259_188" style="mask-type:alpha" maskUnits="userSpaceOnUse" x="83" y="154" width="134" height="143">
<rect x="83" y="154" width="133.554" height="142.2" fill="#D9D9D9"/>
</mask>
<g mask="url(#mask0_259_188)">
<path d="M110.824 284.35C106.186 284.35 102.245 282.622 98.9986 279.165C95.7525 275.709 94.1295 271.512 94.1295 266.575V183.625C94.1295 178.687 95.7525 174.491 98.9986 171.034C102.245 167.578 106.186 165.85 110.824 165.85H188.73C193.367 165.85 197.309 167.578 200.555 171.034C203.801 174.491 205.424 178.687 205.424 183.625V266.575C205.424 271.512 203.801 275.709 200.555 279.165C197.309 282.622 193.367 284.35 188.73 284.35H110.824ZM110.824 272.5H188.73C190.307 272.5 191.627 271.931 192.692 270.793C193.761 269.66 194.295 268.253 194.295 266.575V183.625C194.295 181.946 193.761 180.538 192.692 179.4C191.627 178.267 190.307 177.7 188.73 177.7H110.824C109.247 177.7 107.924 178.267 106.856 179.4C105.791 180.538 105.259 181.946 105.259 183.625V266.575C105.259 268.253 105.791 269.66 106.856 270.793C107.924 271.931 109.247 272.5 110.824 272.5ZM116.388 260.65L138.647 236.95L148.664 247.467L160.906 231.025L183.165 260.65H116.388ZM127.518 213.25C124.457 213.25 121.838 212.089 119.661 209.766C117.479 207.447 116.388 204.659 116.388 201.4C116.388 198.141 117.479 195.352 119.661 193.034C121.838 190.711 124.457 189.55 127.518 189.55C130.579 189.55 133.2 190.711 135.381 193.034C137.559 195.352 138.647 198.141 138.647 201.4C138.647 204.659 137.559 207.447 135.381 209.766C133.2 212.089 130.579 213.25 127.518 213.25Z" fill="#A5A5A5"/>
</g>
</svg>
