<svg width="384" height="531" viewBox="0 0 384 531" fill="none" xmlns="http://www.w3.org/2000/svg">
<rect width="384" height="531" fill="#D9D9D9"/>
<mask id="mask0_244_190" style="mask-type:alpha" maskUnits="userSpaceOnUse" x="88" y="161" width="209" height="209">
<rect x="88" y="161" width="209" height="209" fill="#D9D9D9"/>
</mask>
<g mask="url(#mask0_244_190)">
<path d="M131.542 352.583C124.285 352.583 118.116 350.043 113.036 344.963C107.957 339.884 105.417 333.715 105.417 326.458V204.542C105.417 197.285 107.957 191.116 113.036 186.036C118.116 180.957 124.285 178.417 131.542 178.417H253.458C260.715 178.417 266.884 180.957 271.964 186.036C277.043 191.116 279.583 197.285 279.583 204.542V326.458C279.583 333.715 277.043 339.884 271.964 344.963C266.884 350.043 260.715 352.583 253.458 352.583H131.542ZM131.542 335.167H253.458C255.926 335.167 257.992 334.331 259.659 332.659C261.331 330.992 262.167 328.926 262.167 326.458V204.542C262.167 202.074 261.331 200.005 259.659 198.333C257.992 196.666 255.926 195.833 253.458 195.833H131.542C129.074 195.833 127.005 196.666 125.333 198.333C123.666 200.005 122.833 202.074 122.833 204.542V326.458C122.833 328.926 123.666 330.992 125.333 332.659C127.005 334.331 129.074 335.167 131.542 335.167ZM140.25 317.75L175.083 282.917L190.758 298.374L209.917 274.208L244.75 317.75H140.25ZM157.667 248.083C152.877 248.083 148.778 246.376 145.37 242.963C141.957 239.555 140.25 235.456 140.25 230.667C140.25 225.877 141.957 221.778 145.37 218.37C148.778 214.957 152.877 213.25 157.667 213.25C162.456 213.25 166.558 214.957 169.972 218.37C173.379 221.778 175.083 225.877 175.083 230.667C175.083 235.456 173.379 239.555 169.972 242.963C166.558 246.376 162.456 248.083 157.667 248.083Z" fill="#A5A5A5"/>
</g>
</svg>
