<svg width="31" height="30" viewBox="0 0 31 30" fill="none" xmlns="http://www.w3.org/2000/svg">
<path d="M9.25 27.5H6.4375C6.4375 27.5 5.5 27.5 5.2625 25.8125L3.05 4.7625L3 4.375C3 3.3375 4.125 2.5 5.5 2.5C6.875 2.5 8 3.3375 8 4.375C8 3.3375 9.125 2.5 10.5 2.5C11.875 2.5 13 3.3375 13 4.375C13 3.3375 14.125 2.5 15.5 2.5C16.8625 2.5 18 3.325 18 4.375C18 3.3375 19.125 2.5 20.5 2.5C21.875 2.5 23 3.3375 23 4.375C23 3.3375 24.125 2.5 25.5 2.5C26.875 2.5 28 3.3375 28 4.375L27.95 4.7625L25.7375 25.8125C25.5 27.5 24.5625 27.5 24.5625 27.5H9.25ZM22.8125 6.1625C22.4375 5.4875 21.55 5 20.5 5C19.4875 5 18.45 5.45 18 6.0875L17.725 25H21.325L22.8125 6.1625ZM13 6.0875C12.55 5.45 11.5125 5 10.5 5C9.45 5 8.5625 5.4875 8.1875 6.1625L9.675 25H13.275L13 6.0875Z" fill="#0068C1"/>
</svg>
