<svg width="20" height="22" viewBox="0 0 20 22" fill="none" xmlns="http://www.w3.org/2000/svg">
<path d="M19.0697 4.23C17.4597 4.07 15.8497 3.95 14.2297 3.86V3.85L14.0097 2.55C13.8597 1.63 13.6397 0.25 11.2997 0.25H8.67967C6.34967 0.25 6.12967 1.57 5.96967 2.54L5.75967 3.82C4.82967 3.88 3.89967 3.94 2.96967 4.03L0.929669 4.23C0.509669 4.27 0.209669 4.64 0.249669 5.05C0.289669 5.46 0.649669 5.76 1.06967 5.72L3.10967 5.52C8.34967 5 13.6297 5.2 18.9297 5.73H19.0097C19.3897 5.73 19.7197 5.44 19.7597 5.05C19.7747 4.85024 19.7109 4.65253 19.5819 4.49925C19.453 4.34596 19.2691 4.24931 19.0697 4.23ZM17.2297 7.14C16.9897 6.89 16.6597 6.75 16.3197 6.75H3.67967C3.33967 6.75 2.99967 6.89 2.76967 7.14C2.53967 7.39 2.40967 7.73 2.42967 8.08L3.04967 18.34C3.15967 19.86 3.29967 21.76 6.78967 21.76H13.2097C16.6997 21.76 16.8397 19.87 16.9497 18.34L17.5697 8.09C17.5897 7.73 17.4597 7.39 17.2297 7.14ZM11.6597 16.75H8.32967C7.91967 16.75 7.57967 16.41 7.57967 16C7.57967 15.59 7.91967 15.25 8.32967 15.25H11.6597C12.0697 15.25 12.4097 15.59 12.4097 16C12.4097 16.41 12.0697 16.75 11.6597 16.75ZM12.4997 12.75H7.49967C7.08967 12.75 6.74967 12.41 6.74967 12C6.74967 11.59 7.08967 11.25 7.49967 11.25H12.4997C12.9097 11.25 13.2497 11.59 13.2497 12C13.2497 12.41 12.9097 12.75 12.4997 12.75Z" fill="white"/>
</svg>
