<svg width="446" height="250" viewBox="0 0 446 250" fill="none" xmlns="http://www.w3.org/2000/svg">
<rect width="446" height="250" fill="#D9D9D9"/>
<mask id="mask0_244_190" style="mask-type:alpha" maskUnits="userSpaceOnUse" x="136" y="54" width="175" height="143">
<rect x="136" y="54" width="174.167" height="142.2" fill="#D9D9D9"/>
</mask>
<g mask="url(#mask0_244_190)">
<path d="M172.285 184.35C166.237 184.35 161.097 182.621 156.864 179.165C152.63 175.709 150.514 171.512 150.514 166.575V83.6249C150.514 78.6874 152.63 74.4905 156.864 71.0343C161.097 67.5781 166.237 65.8499 172.285 65.8499H273.882C279.929 65.8499 285.07 67.5781 289.303 71.0343C293.536 74.4905 295.653 78.6874 295.653 83.6249V166.575C295.653 171.512 293.536 175.709 289.303 179.165C285.07 182.621 279.929 184.35 273.882 184.35H172.285ZM172.285 172.5H273.882C275.938 172.5 277.66 171.931 279.049 170.793C280.442 169.66 281.139 168.253 281.139 166.575V83.6249C281.139 81.9462 280.442 80.538 279.049 79.4004C277.66 78.2667 275.938 77.6999 273.882 77.6999H172.285C170.229 77.6999 168.504 78.2667 167.111 79.4004C165.722 80.538 165.028 81.9462 165.028 83.6249V166.575C165.028 168.253 165.722 169.66 167.111 170.793C168.504 171.931 170.229 172.5 172.285 172.5ZM179.542 160.65L208.569 136.95L221.632 147.467L237.597 131.025L266.625 160.65H179.542ZM194.056 113.25C190.064 113.25 186.649 112.089 183.809 109.766C180.964 107.447 179.542 104.659 179.542 101.4C179.542 98.1411 180.964 95.3524 183.809 93.0338C186.649 90.7112 190.064 89.5499 194.056 89.5499C198.047 89.5499 201.465 90.7112 204.31 93.0338C207.149 95.3524 208.569 98.1411 208.569 101.4C208.569 104.659 207.149 107.447 204.31 109.766C201.465 112.089 198.047 113.25 194.056 113.25Z" fill="#A5A5A5"/>
</g>
</svg>
