<svg width="1158" height="602" viewBox="0 0 1158 602" fill="none" xmlns="http://www.w3.org/2000/svg">
<rect width="1157.43" height="602" fill="#131313"/>
<path d="M545.208 278.283H549.353L590.642 319.571V323.717H545.208M524.024 238.528L516.811 245.741L528.17 257.156C524.819 259.087 522.491 262.722 522.491 266.924V335.075C522.491 338.088 523.687 340.977 525.817 343.107C527.948 345.237 530.837 346.434 533.849 346.434H617.504L628.863 357.792L636.075 350.58M624.717 255.566H555.544L578.261 278.283H590.642V290.664L593.879 293.901L613.358 278.283V313.381L636.075 336.041C636.075 335.7 636.075 335.416 636.075 335.075V266.924C636.075 263.912 634.879 261.023 632.749 258.893C630.619 256.763 627.729 255.566 624.717 255.566Z" fill="url(#paint0_linear_538_430)"/>
<defs>
<linearGradient id="paint0_linear_538_430" x1="516.811" y1="298.16" x2="636.075" y2="298.16" gradientUnits="userSpaceOnUse">
<stop stop-color="#003E73"/>
<stop offset="1" stop-color="#006FCF"/>
</linearGradient>
</defs>
</svg>
