<svg width="13" height="14" viewBox="0 0 13 14" fill="none" xmlns="http://www.w3.org/2000/svg">
<mask id="mask0_400_423" style="mask-type:alpha" maskUnits="userSpaceOnUse" x="0" y="0" width="13" height="14">
<rect x="0.193359" y="0.805519" width="12.8066" height="12.8066" fill="#D9D9D9"/>
</mask>
<g mask="url(#mask0_400_423)">
<path d="M5.23569 10.1704C5.18233 10.1704 5.13342 10.1615 5.08895 10.1437C5.04448 10.1259 5.00001 10.0948 4.95555 10.0503L2.54096 7.63572C2.46092 7.55568 2.4209 7.45785 2.4209 7.34224C2.4209 7.22662 2.46092 7.12879 2.54096 7.04875C2.621 6.96871 2.71438 6.92869 2.82111 6.92869C2.92783 6.92869 3.02121 6.96871 3.10125 7.04875L5.23569 9.18319L10.0782 4.34068C10.1582 4.26064 10.2538 4.22062 10.365 4.22062C10.4762 4.22062 10.5718 4.26064 10.6518 4.34068C10.7319 4.42072 10.7719 4.51633 10.7719 4.6275C10.7719 4.73867 10.7319 4.83427 10.6518 4.91431L5.51584 10.0503C5.47137 10.0948 5.4269 10.1259 5.38243 10.1437C5.33797 10.1615 5.28905 10.1704 5.23569 10.1704Z" fill="white"/>
</g>
</svg>
